# xmcd CD database file
#
# Track frame offsets:
#	150
#	20785
#	37905
#	58477
#
# Disc length: 1004 seconds
#
# Revision: 0
# Processed by: cddbd v1.5.1PL0 Copyright (c) Steve Scherf et al.
# Submitted via: CDex 1.51
#
DISCID=3303ea04
DTITLE=MAX - eternal white
DYEAR=2002
DGENRE=JPop
TTITLE0=eternal white
TTITLE1=Another Truth
TTITLE2=eternal white <Instrumental>
TTITLE3=Another Truth <Instrumental>
EXTD=YEAR: 2002
EXTT0=
EXTT1=
EXTT2=
EXTT3=
PLAYORDER=
